# xmcd
#
# Track frame offsets: 
#        150
#        10865
#        22885
#        35825
#        49905
#        62605
#        78060
#        94077
#        111465
#        122445
#        139945
#        157255
#
# Disc length: 2360 seconds
#
# Revision: 4
# Processed by: cddbd v1.5PL3 Copyright (c) Steve Scherf et al.
# Submitted via: ExactAudioCopy v0.95a3
#
DISCID=9a09360c
DTITLE=Julie Reeves - It's About Time
DYEAR=1999
DGENRE=Country
TTITLE0=Trouble Is A Woman
TTITLE1=Do You Think About Me
TTITLE2=Party Down
TTITLE3=What I Need
TTITLE4=All Or Nothing
TTITLE5=You Were A Mountain
TTITLE6=It's About Time
TTITLE7=If I'd Never Loved You
TTITLE8=Whatever
TTITLE9=He Keeps Me In One Piece
TTITLE10=What You Get Is What You See
TTITLE11=If Heartaches Had Wings
EXTD=
EXTT0=
EXTT1=
EXTT2=
EXTT3=
EXTT4=
EXTT5=
EXTT6=
EXTT7=
EXTT8=
EXTT9=
EXTT10=
EXTT11=
PLAYORDER=
